<svg width="181" height="202" viewBox="0 0 181 202" fill="none" xmlns="http://www.w3.org/2000/svg">
<path d="M81.9795 94.1954C53.4658 101.833 28.0071 110.998 1.02097 125.764C0.851243 129.667 0.40996 137.576 0.00262116 137.984C-0.506552 138.493 73.3235 109.98 84.0162 108.452C85.5437 118.635 96.2363 177.189 109.984 201.12C111.512 199.592 116.094 195.519 117.622 195.01C118.64 188.9 101.837 119.654 99.8005 103.87C122.713 96.7412 171.594 83.7066 179.741 80.448C180.08 78.2416 180.657 73.4215 180.25 71.7922C167.521 70.7739 103.874 86.0488 97.2547 89.1038C92.1629 58.5539 94.7088 5.60081 91.1446 0C88.7685 0.678886 83.507 2.13849 81.4703 2.54582C77.9061 12.22 78.9244 70.7739 81.9795 94.1954Z" fill="#F1F1F1"/>
<path fill-rule="evenodd" clip-rule="evenodd" d="M133.406 64.1547C145.217 64.1547 155.81 53.4622 155.81 36.1507C155.81 20.9656 145.217 8.65576 133.406 8.65576C121.595 8.65576 111.002 20.9656 111.002 36.1507C111.002 51.3357 119.149 64.1547 133.406 64.1547ZM133.406 49.3891C138.468 49.3891 142.571 43.4621 142.571 36.1508C142.571 28.8395 138.468 22.9125 133.406 22.9125C128.344 22.9125 124.241 28.8395 124.241 36.1508C124.241 43.4621 128.344 49.3891 133.406 49.3891Z" fill="#46A3FF"/>
<path fill-rule="evenodd" clip-rule="evenodd" d="M54.9933 193.482C66.8041 193.482 77.397 182.79 77.397 165.478C77.397 150.293 66.8041 137.983 54.9933 137.983C43.1826 137.983 32.5897 150.293 32.5897 165.478C32.5897 180.663 40.7365 193.482 54.9933 193.482ZM54.9933 178.717C60.0551 178.717 64.1584 172.79 64.1584 165.478C64.1584 158.167 60.0551 152.24 54.9933 152.24C49.9316 152.24 45.8282 158.167 45.8282 165.478C45.8282 172.79 49.9316 178.717 54.9933 178.717Z" fill="#46A3FF"/>
<path d="M41.7548 45.8247C40.5328 46.6394 33.0989 53.9713 29.5346 59.063C25.9704 54.4805 18.3328 47.3522 17.3145 46.843C16.8053 46.843 13.2411 50.4072 11.7136 51.9347L11.7136 51.9347C12.5283 55.1933 19.5209 64.4941 22.9154 68.7371C20.8787 71.2829 14.7686 83.5029 13.2411 87.5762C14.7686 89.1037 21.3879 93.177 23.9337 94.7045C26.4796 92.6679 32.5897 81.4662 34.1172 79.9387C35.1356 80.9571 46.3374 87.067 48.8832 87.5762L54.9933 81.4662C53.3639 79.4296 45.319 71.7921 41.2456 68.7371C43.2823 66.1913 47.3557 58.0447 49.3924 52.4438C49.3924 52.0365 44.3007 47.3522 41.7548 45.8247Z" fill="#FF827E"/>
<path d="M159.374 113.544C158.152 114.359 150.718 121.691 147.154 126.782C143.589 122.2 135.952 115.071 134.933 114.562C134.424 114.562 130.86 118.126 129.333 119.654L129.333 119.654C130.147 122.913 137.14 132.213 140.534 136.456C138.498 139.002 132.388 151.222 130.86 155.295C132.388 156.823 139.007 160.896 141.553 162.424C144.099 160.387 150.209 149.185 151.736 147.658C152.755 148.676 163.956 154.786 166.502 155.295L172.612 149.185C170.983 147.149 162.938 139.511 158.865 136.456C160.901 133.911 164.975 125.764 167.011 120.163C167.011 119.756 161.92 115.071 159.374 113.544Z" fill="#FF827E"/>
</svg>
